<svg width="512" height="512" viewBox="0 0 512 512" xmlns="http://www.w3.org/2000/svg" fill="none">
  <defs>
    <linearGradient id="g" x1="0" x2="1" y1="0" y2="1">
      <stop offset="0%" stop-color="#7f5bff" />
      <stop offset="50%" stop-color="#b24bff" />
      <stop offset="100%" stop-color="#ff4fa3" />
    </linearGradient>
  </defs>
  <rect width="512" height="512" rx="128" fill="#0d0f17"/>
  <path stroke="url(#g)" stroke-width="28" stroke-linecap="round" stroke-linejoin="round" d="M160 300c40 70 152 70 192 0 20-36 20-92 0-128-14-24-38-44-64-52-10 22-36 38-64 38s-54-16-64-38c-26 8-50 28-64 52-20 36-20 92 0 128Z" />
  <circle cx="196" cy="246" r="18" fill="url(#g)"/>
  <circle cx="316" cy="246" r="18" fill="url(#g)"/>
  <path stroke="url(#g)" stroke-width="20" stroke-linecap="round" d="M214 310c24 24 60 24 84 0"/>
  <path d="M118 360c32 44 84 72 138 72 54 0 106-28 138-72" stroke="url(#g)" stroke-width="22" stroke-linecap="round" stroke-linejoin="round"/>
  <path d="M164 120c0 20-16 44-36 52 0-24 12-56 28-72 4 4 8 12 8 20Zm184 0c0 20 16 44 36 52 0-24-12-56-28-72-4 4-8 12-8 20Z" fill="url(#g)" />
</svg>